<?xml version="1.0" ?><!DOCTYPE svg  PUBLIC '-//W3C//DTD SVG 1.1//EN'  'http://www.w3.org/Graphics/SVG/1.1/DTD/svg11.dtd'><svg enable-background="new 0 0 512 512" height="512px" id="Layer_1" version="1.1" viewBox="0 0 512 512" width="512px" xml:space="preserve" xmlns="http://www.w3.org/2000/svg" xmlns:xlink="http://www.w3.org/1999/xlink"><g><path d="M255.998,256.297l-57.044-57.043l21.138-146.812h35.906h45.088l66.578,92.187L255.998,256.297" fill="#9BCA5E"/><path d="M453.471,58.679c-3.939-3.94-9.383-6.376-15.396-6.376L255.996,201.735c0,32.358,0,56.52,0,54.423   l89.002-0.001L459.854,74.082C459.854,68.066,453.471,58.679,453.471,58.679z" fill="#9BCA5E"/></g><g><polyline fill="#7AC061" points="256,256.273 184.032,328.242 52.143,278.799 52.143,256.273 52.142,256.299 52.142,221.803    164.955,165.253 255.998,256.297  "/><path d="M255.996,256.158v-83.081L73.922,52.303c-6.014,0-11.46,2.437-15.402,6.378   c-3.941,3.942-6.379,9.386-6.379,15.4l102.857,182.077H255.996z" fill="#7AC061"/></g><path d="M58.522,58.612c3.941-3.941,9.388-6.378,15.402-6.378h182.074v203.855L58.522,58.612z" fill="#8CC55F"/><g><polyline fill="#3F934E" points="255.998,256.297 320.041,192.252 459.854,214.301 459.854,256.297 459.855,256.271    459.855,296.797 347.633,347.906 256,256.273  "/><path d="M255.999,256.134v136.936l182.075,66.92c6.014,0,11.459-2.438,15.4-6.379s6.381-9.387,6.381-15.4   L336.331,256.133L255.999,256.134z" fill="#3F934E"/></g><g><path d="M256,256.273l85.965,85.965l-52.877,117.891H256h-46.408l16.569-175.074   C244.107,267.699,256,256.273,256,256.273" fill="#4DAB5B"/><path d="M255.999,256.134h-91.001L52.142,438.21c0,6.016,2.44,11.463,6.382,15.402   c3.94,3.941,9.384,6.377,15.397,6.377l182.078-81.587C255.999,320.171,255.999,252.687,255.999,256.134z" fill="#4DAB5B"/></g><path d="M453.473,58.609c0,0,6.383,9.387,6.383,15.403v182.076l-203.857,0.001L453.473,58.609z" fill="#A5CD5D"/><path d="M459.857,438.141c0,6.014-2.439,11.459-6.381,15.4L256.001,256.064l203.856,0V438.141z" fill="#3F934E"/><path d="M453.477,453.541c-3.941,3.941-9.387,6.379-15.4,6.379H256.001V256.064L453.477,453.541z" fill="#459D53"/><path d="M256.001,459.92H73.923c-6.013,0-11.457-2.436-15.397-6.377c-3.942-3.939,197.475-197.479,197.475-197.479  C256.001,250.05,256.001,459.92,256.001,459.92z" fill="#4DAB5B"/><path d="M58.526,453.543c-3.942-3.939-6.382-9.387-6.382-15.402V256.065l203.857-0.001L58.526,453.543z" fill="#54B862"/><path d="M52.143,74.012c0-6.014,2.438-11.458,6.379-15.4l197.476,197.477L52.143,256.09V74.012z" fill="#7AC061"/><path d="M255.999,52.233h182.078c6.014,0,11.457,2.436,15.396,6.376L255.999,256.089  C255.999,262.102,255.999,52.233,255.999,52.233z" fill="#9BCA5E"/><path clip-rule="evenodd" d="M349.032,161.728c-24.637-24.667-57.403-38.258-92.314-38.272  c-71.93,0-130.473,58.538-130.5,130.491c-0.01,23,5.999,45.45,17.419,65.242l-18.514,67.624l69.18-18.149  c19.061,10.396,40.522,15.877,62.363,15.885h0.053h0.001c71.923,0,130.47-58.543,130.499-130.497  C387.233,219.182,373.672,186.394,349.032,161.728 M256.719,362.51h-0.043c-19.463-0.008-38.553-5.237-55.207-15.119l-3.961-2.353  l-41.051,10.771l10.957-40.027l-2.579-4.103c-10.858-17.271-16.593-37.23-16.584-57.723  c0.023-59.804,48.682-108.459,108.511-108.459c28.972,0.01,56.205,11.307,76.684,31.81c20.479,20.502,31.751,47.754,31.739,76.735  C365.162,313.851,316.505,362.51,256.719,362.51 M316.216,281.272c-3.262-1.632-19.292-9.521-22.282-10.607  c-2.987-1.09-5.162-1.632-7.336,1.632c-2.173,3.264-8.423,10.607-10.324,12.784s-3.803,2.45-7.064,0.816  c-3.262-1.633-13.768-5.074-26.223-16.184c-9.693-8.647-16.237-19.324-18.139-22.589c-1.902-3.264-0.204-5.029,1.429-6.654  c1.467-1.461,3.261-3.809,4.891-5.713c1.631-1.903,2.174-3.265,3.261-5.439c1.087-2.177,0.544-4.081-0.272-5.713  c-0.814-1.632-7.336-17.683-10.052-24.211c-2.647-6.358-5.335-5.497-7.337-5.598c-1.9-0.094-4.076-0.114-6.25-0.114  c-2.174,0-5.707,0.816-8.696,4.08c-2.989,3.264-11.412,11.153-11.412,27.203c0,16.051,11.684,31.555,13.314,33.731  c1.631,2.177,22.993,35.109,55.704,49.234c7.779,3.361,13.854,5.367,18.589,6.869c7.811,2.482,14.919,2.131,20.537,1.293  c6.265-0.937,19.291-7.889,22.009-15.504c2.718-7.619,2.718-14.147,1.902-15.508C321.65,283.723,319.477,282.904,316.216,281.272" fill="#FFFFFF" fill-rule="evenodd"/></svg>